<?xml version="1.0" encoding="utf-8"?>
<!-- Generator: Adobe Illustrator 26.0.1, SVG Export Plug-In . SVG Version: 6.00 Build 0)  -->
<svg version="1.1" id="Layer_1" xmlns="http://www.w3.org/2000/svg" xmlns:xlink="http://www.w3.org/1999/xlink" x="0px" y="0px"
	 viewBox="0 0 1920 1080" style="enable-background:new 0 0 1920 1080;" xml:space="preserve">
<style type="text/css">
	.st0{fill:#2B193F;}
	.st1{fill:#58348B;}
	.st2{fill:#EC6322;}
	.st3{fill:#EA5C0C;}
	.st4{fill:#D79463;}
	.st5{fill:#EE741D;}
</style>
<path class="st0" d="M1196.58,320.64c-7.86,16.72-18.9,31.52-30.4,45.62c-15.13,18.55-30.14,37.36-47.67,53.86
	c-28.2,26.55-59.02,49.47-92.78,68.57c-28.63,16.2-58.23,30.03-90.04,38.6c-23.43,6.31-48.18,8.27-72.49,10.35
	c-24.15,0.82-30.12,5.94-47.74,0.77c-0.58-0.17-2.32-0.26-4.45-0.07c0.7-1.65,2.75-3.01,1.9-4.99
	c-5.37-12.46,3.45-10.51,10.63-10.85c54.87-2.6,107.64-14.79,157.83-36.88c49.15-21.64,93.93-50.53,134.54-85.77
	c26.91-23.35,51.66-48.75,73.48-76.95C1191.27,320.49,1193.39,318.89,1196.58,320.64z"/>
<g>
	<path class="st1" d="M545.1,924.46h-37.65v-13.3h-0.45c-1.67,2.96-3.78,5.54-6.35,7.76c-2.57,2.22-5.52,4.07-8.85,5.54
		c-3.33,1.47-6.84,2.55-10.55,3.21c-3.71,0.67-7.37,1-11,1c-9.98,0-18.9-1.77-26.76-5.32c-7.86-3.54-14.48-8.34-19.85-14.4
		c-5.37-6.06-9.49-13.04-12.36-20.94c-2.87-7.9-4.31-16.29-4.31-25.15c0-10.04,1.74-19.13,5.22-27.26
		c3.48-8.12,8.09-15.03,13.84-20.72c5.74-5.69,12.44-10.04,20.07-13.07c7.63-3.03,15.69-4.54,24.16-4.54
		c5.14,0,9.75,0.55,13.84,1.66c4.08,1.11,7.63,2.51,10.66,4.21c3.02,1.7,5.52,3.55,7.48,5.54c1.96,2,3.55,3.96,4.76,5.87h0.45
		v-13.08h37.65V924.46z M444.62,863.3c0,2.96,0.57,6.21,1.7,9.75c1.13,3.55,2.95,6.91,5.44,10.08c2.5,3.18,5.71,5.84,9.64,7.98
		c3.93,2.14,8.77,3.21,14.52,3.21c5.9,0,10.85-1.07,14.86-3.21c4-2.14,7.26-4.8,9.75-7.98c2.5-3.17,4.27-6.61,5.33-10.3
		c1.06-3.69,1.59-7.02,1.59-9.97c0-3.69-0.65-7.39-1.93-11.08c-1.29-3.69-3.25-7.05-5.9-10.08c-2.65-3.03-5.98-5.46-9.98-7.31
		c-4.01-1.85-8.66-2.77-13.95-2.77c-5.44,0-10.09,1-13.95,2.99s-7.07,4.54-9.64,7.65c-2.57,3.1-4.46,6.5-5.67,10.19
		C445.22,856.14,444.62,859.75,444.62,863.3z"/>
	<path class="st1" d="M703.64,924.46H667.8v-13.3h-0.45c-0.76,1.33-1.97,2.96-3.63,4.88c-1.67,1.92-3.97,3.81-6.92,5.65
		c-2.95,1.85-6.62,3.44-11,4.76c-4.39,1.33-9.75,2-16.1,2c-9.53,0-18.18-1.7-25.97-5.1c-7.79-3.4-14.4-8.05-19.85-13.96
		c-5.44-5.91-9.68-12.85-12.7-20.83c-3.03-7.98-4.54-16.62-4.54-25.93c0-10.34,1.74-19.57,5.22-27.7
		c3.48-8.12,8.13-14.99,13.95-20.61c5.82-5.61,12.48-9.86,19.96-12.74s15.23-4.32,23.25-4.32c5.59,0,10.47,0.59,14.63,1.77
		c4.16,1.18,7.71,2.55,10.66,4.1c2.95,1.55,5.37,3.14,7.26,4.76c1.89,1.63,3.36,2.96,4.42,3.99v-51.41h37.65V924.46z M604.29,862.41
		c0,4.73,0.79,9.05,2.38,12.96c1.59,3.92,3.82,7.28,6.69,10.08c2.87,2.81,6.24,4.95,10.09,6.43c3.86,1.48,7.97,2.22,12.36,2.22
		c5.9,0,10.89-1.03,14.97-3.1c4.08-2.07,7.41-4.69,9.98-7.87c2.57-3.17,4.42-6.61,5.56-10.3c1.13-3.69,1.7-7.16,1.7-10.42
		c0-3.69-0.68-7.39-2.04-11.08c-1.36-3.69-3.37-6.98-6.01-9.86c-2.65-2.88-5.98-5.24-9.98-7.09c-4.01-1.85-8.58-2.77-13.72-2.77
		c-5.44,0-10.17,0.92-14.18,2.77c-4.01,1.85-7.34,4.29-9.98,7.31c-2.65,3.03-4.61,6.35-5.9,9.97
		C604.94,855.29,604.29,858.87,604.29,862.41z"/>
	<path class="st1" d="M768.51,788.4h-37.65v-27.92h37.65V788.4z M768.51,924.46h-37.65V801.47h37.65V924.46z"/>
	<path class="st1" d="M795.72,760.47h37.65v163.99h-37.65V760.47z"/>
	<path class="st2" d="M860.59,760.47h37.65v50.75c3.32-3.55,6.84-6.24,10.55-8.09c3.7-1.85,7.26-3.21,10.66-4.1s6.46-1.4,9.19-1.55
		c2.72-0.15,4.76-0.22,6.12-0.22c6.5,0,13.42,1.22,20.75,3.66c7.33,2.44,14.02,6.24,20.07,11.41c6.05,5.17,11.08,11.86,15.08,20.06
		c4,8.2,6.01,18.14,6.01,29.81c0,11.08-1.81,20.8-5.44,29.14c-3.63,8.35-8.39,15.29-14.29,20.83c-5.9,5.54-12.67,9.68-20.3,12.41
		c-7.64,2.73-15.46,4.1-23.48,4.1c-8.92,0-16.56-1.77-22.91-5.32c-6.35-3.54-10.74-7.53-13.16-11.97h-0.45v13.08h-36.06V760.47z
		 M896.88,862.64c0,4.29,0.72,8.35,2.15,12.19c1.44,3.84,3.48,7.2,6.12,10.08c2.64,2.88,5.86,5.17,9.64,6.87
		c3.78,1.7,8.01,2.55,12.7,2.55c4.84,0,9.19-0.89,13.04-2.66c3.86-1.77,7.14-4.1,9.87-6.98c2.72-2.88,4.84-6.24,6.35-10.08
		c1.51-3.84,2.27-7.76,2.27-11.75s-0.72-7.87-2.15-11.63c-1.44-3.77-3.52-7.09-6.24-9.97s-5.98-5.21-9.75-6.98
		c-3.78-1.77-8.02-2.66-12.7-2.66c-4.99,0-9.41,0.89-13.27,2.66c-3.86,1.77-7.15,4.14-9.87,7.09c-2.72,2.96-4.76,6.28-6.12,9.97
		C897.56,855.03,896.88,858.8,896.88,862.64z"/>
	<path class="st2" d="M1150.01,924.46h-37.65v-13.3h-0.45c-1.67,2.96-3.78,5.54-6.35,7.76c-2.57,2.22-5.52,4.07-8.85,5.54
		c-3.33,1.47-6.84,2.55-10.55,3.21c-3.71,0.67-7.37,1-11,1c-9.98,0-18.9-1.77-26.76-5.32c-7.86-3.54-14.48-8.34-19.85-14.4
		c-5.37-6.06-9.49-13.04-12.36-20.94c-2.87-7.9-4.31-16.29-4.31-25.15c0-10.04,1.74-19.13,5.22-27.26
		c3.48-8.12,8.09-15.03,13.83-20.72c5.75-5.69,12.44-10.04,20.07-13.07c7.63-3.03,15.69-4.54,24.16-4.54
		c5.14,0,9.75,0.55,13.84,1.66c4.08,1.11,7.63,2.51,10.66,4.21c3.02,1.7,5.52,3.55,7.48,5.54c1.96,2,3.55,3.96,4.76,5.87h0.45
		v-13.08h37.65V924.46z M1049.53,863.3c0,2.96,0.57,6.21,1.7,9.75c1.13,3.55,2.95,6.91,5.44,10.08c2.5,3.18,5.71,5.84,9.64,7.98
		c3.93,2.14,8.77,3.21,14.52,3.21c5.9,0,10.85-1.07,14.86-3.21c4-2.14,7.26-4.8,9.75-7.98c2.5-3.17,4.27-6.61,5.33-10.3
		c1.06-3.69,1.59-7.02,1.59-9.97c0-3.69-0.64-7.39-1.93-11.08c-1.29-3.69-3.25-7.05-5.9-10.08c-2.65-3.03-5.97-5.46-9.98-7.31
		c-4.01-1.85-8.66-2.77-13.95-2.77c-5.44,0-10.09,1-13.95,2.99s-7.07,4.54-9.64,7.65c-2.57,3.1-4.46,6.5-5.67,10.19
		C1050.13,856.14,1049.53,859.75,1049.53,863.3z"/>
	<path class="st2" d="M1178.58,760.47h37.65v50.75c3.32-3.55,6.84-6.24,10.55-8.09c3.7-1.85,7.26-3.21,10.66-4.1
		c3.4-0.89,6.46-1.4,9.19-1.55c2.72-0.15,4.76-0.22,6.12-0.22c6.5,0,13.42,1.22,20.75,3.66c7.33,2.44,14.02,6.24,20.07,11.41
		c6.05,5.17,11.08,11.86,15.08,20.06c4,8.2,6.01,18.14,6.01,29.81c0,11.08-1.81,20.8-5.44,29.14c-3.63,8.35-8.39,15.29-14.29,20.83
		c-5.9,5.54-12.67,9.68-20.3,12.41c-7.64,2.73-15.46,4.1-23.48,4.1c-8.92,0-16.56-1.77-22.91-5.32
		c-6.35-3.54-10.74-7.53-13.16-11.97h-0.45v13.08h-36.06V760.47z M1214.87,862.64c0,4.29,0.72,8.35,2.15,12.19
		c1.44,3.84,3.48,7.2,6.12,10.08c2.64,2.88,5.86,5.17,9.64,6.87c3.78,1.7,8.01,2.55,12.7,2.55c4.84,0,9.19-0.89,13.04-2.66
		c3.86-1.77,7.15-4.1,9.87-6.98c2.72-2.88,4.84-6.24,6.35-10.08c1.51-3.84,2.27-7.76,2.27-11.75s-0.72-7.87-2.15-11.63
		c-1.44-3.77-3.52-7.09-6.24-9.97s-5.98-5.21-9.75-6.98c-3.78-1.77-8.02-2.66-12.7-2.66c-4.99,0-9.41,0.89-13.27,2.66
		c-3.86,1.77-7.14,4.14-9.87,7.09c-2.72,2.96-4.76,6.28-6.12,9.97C1215.55,855.03,1214.87,858.8,1214.87,862.64z"/>
	<path class="st2" d="M1468,924.46h-37.65v-13.3h-0.45c-1.67,2.96-3.78,5.54-6.35,7.76c-2.57,2.22-5.52,4.07-8.85,5.54
		c-3.33,1.47-6.84,2.55-10.55,3.21c-3.71,0.67-7.37,1-11,1c-9.98,0-18.9-1.77-26.76-5.32c-7.86-3.54-14.48-8.34-19.85-14.4
		c-5.37-6.06-9.49-13.04-12.36-20.94c-2.87-7.9-4.31-16.29-4.31-25.15c0-10.04,1.74-19.13,5.22-27.26
		c3.48-8.12,8.09-15.03,13.83-20.72c5.75-5.69,12.44-10.04,20.07-13.07c7.63-3.03,15.69-4.54,24.16-4.54
		c5.14,0,9.75,0.55,13.84,1.66c4.08,1.11,7.63,2.51,10.66,4.21c3.02,1.7,5.52,3.55,7.48,5.54c1.96,2,3.55,3.96,4.76,5.87h0.45
		v-13.08H1468V924.46z M1367.52,863.3c0,2.96,0.57,6.21,1.7,9.75c1.13,3.55,2.95,6.91,5.44,10.08c2.5,3.18,5.71,5.84,9.64,7.98
		c3.93,2.14,8.77,3.21,14.52,3.21c5.9,0,10.85-1.07,14.86-3.21c4-2.14,7.26-4.8,9.75-7.98c2.5-3.17,4.27-6.61,5.33-10.3
		c1.06-3.69,1.59-7.02,1.59-9.97c0-3.69-0.64-7.39-1.93-11.08c-1.29-3.69-3.25-7.05-5.9-10.08c-2.65-3.03-5.97-5.46-9.98-7.31
		c-4.01-1.85-8.66-2.77-13.95-2.77c-5.44,0-10.09,1-13.95,2.99s-7.07,4.54-9.64,7.65c-2.57,3.1-4.46,6.5-5.67,10.19
		C1368.12,856.14,1367.52,859.75,1367.52,863.3z"/>
</g>
<path class="st1" d="M1196.58,320.64c13.71,4.81,18.13,13.19,13.76,27.81c-13.35,44.69-26.96,89.3-40.48,133.94
	c-2.63,8.69-5.14,17.43-8.03,26.04c-3.76,11.16-11.52,17.45-23.41,18.78c-55.39,6.19-110.77,12.59-166.17,18.73
	c-42.95,4.76-85.94,9.18-128.89,13.91c-10.49,1.16-15.5,9.18-11.71,17.65c2.44,5.46,6.73,6.43,12.24,6.42
	c84.28-0.17,168.55-0.19,252.83-0.24c12.53-0.01,25.07-0.11,37.59,0.08c11.28,0.17,18.96,7.56,18.89,17.76
	c-0.07,10.36-7.56,17.67-18.93,17.68c-99,0.11-198,0.18-297,0.07c-19.01-0.02-34.84-12.22-40.85-30.41
	c-6.35-19.19-0.76-38.56,14.58-50.52c9.84-3.68,19.82-0.2,29.66-0.66c23.39-1.09,46.86-1.93,69.93-6.81
	c55.41-11.74,104.87-36.14,151.36-68.07c51.74-35.54,92.37-81.14,126.69-133C1190.91,326.41,1193.1,322.97,1196.58,320.64z"/>
<path class="st1" d="M1059.1,320.16c-22.54,22.06-44.12,40.94-67.83,57.34c-60.19,41.63-125.89,69.22-198.78,79
	c-7.08,0.95-9.64-0.89-11.82-7.44c-17.21-51.66-34.99-103.13-52.12-154.81c-2.43-7.32-5.77-9.55-13.29-9.32
	c-17.52,0.55-35.08,0.18-52.62,0.01c-11.66-0.11-18.92-7.02-18.82-17.53c0.11-10.63,7.18-17.05,19.12-17.06
	c23.49-0.01,46.99,0.03,70.48,0.19c14.29,0.1,19.42,3.85,24.11,17.56c4.97,14.52,10.04,29.01,14.45,43.7
	c1.95,6.51,5.14,8.46,11.94,8.44c87.4-0.23,174.8-0.12,262.2-0.1C1049.52,320.16,1052.91,320.16,1059.1,320.16z"/>
<path class="st3" d="M768.07,476.46c3.59,0.63,7.4-0.87,10.88,2.47c-11.42,0-22.84,0-34.91,0c1.94,4.07,4.4,3.06,6.35,3.14
	c65.82,2.73,129.9-6.9,192.23-27.93c57.55-19.42,110.01-48.43,158.89-84.41c29.24-21.53,56.58-45.04,82.02-70.88
	c1.41-1.44,2.4-4.92,5.75-2.74c-21.35,30-46.35,56.94-73.38,81.64c-24.28,22.18-50.95,41.71-78.82,59.44
	c-67.53,42.95-141.19,66.41-221.19,68.41c-48.38,1.21-95.44-6.49-139.47-27.91c-2.16-1.05,4.92,2.33-6.54-2.72
	c-10.15-6.03-3.15-4.48,0.89-5.03c2.91-0.4,6.09-0.55,8.99,0.74c0.54-0.05,1.07,0.03,1.57,0.24c6.84,2.07,13.92,2.65,20.96,3.51
	C724.18,476.58,746.12,476.75,768.07,476.46z"/>
<path class="st1" d="M1053.57,668.99c0.15-21.24,15.85-36.89,36.8-36.67c20.71,0.21,36.67,16.7,36.25,37.45
	c-0.39,19.42-17.61,36.04-37.29,36C1069.08,705.71,1053.43,689.62,1053.57,668.99z"/>
<path class="st1" d="M905.48,669.49c-0.05,20.39-16.08,36.35-36.45,36.29c-20.02-0.06-36.05-16.53-35.95-36.96
	c0.1-20.65,16.63-36.97,37.21-36.74C890.53,632.32,905.53,648.26,905.48,669.49z"/>
<path class="st3" d="M655.44,465.89c0,0,3.88,3.81,17.36,10.76c5.03,2.59,16.06,6.7,16.06,6.7l-4.28-4.92l-30.37-13.67
	L655.44,465.89z"/>
<path class="st4" d="M702.3,474.42c-7.34,0.96-14.41,0.24-20.96-3.51C688.54,470.81,695.55,471.84,702.3,474.42z"/>
<path class="st5" d="M653.89,464.76c0,0,87.57,12.28,137.81,8.3c49.18-3.9,38.28,6.26,38.28,6.26l-83.22,4.69
	C746.76,484.01,679.76,486.85,653.89,464.76z"/>
<path class="st5" d="M1266.17,259.29L1248.1,134c-0.28-1.91-1.76-3.27-3.49-3.56c-0.01-0.11-0.03-0.21-0.04-0.32
	c-0.02,0.11-0.04,0.2-0.07,0.3c-0.77-0.11-1.58-0.01-2.35,0.35l-120.87,55.82c-3.31,1.53-3.25,6.25,0.09,7.7l37.04,16.09
	c-0.27,3.01-2.71,7.36-6.77,14.62c-33.29,59.59-77.37,109.9-131.1,151.76c-58.17,45.32-123.07,76.3-195.56,91.25
	c-18.87,3.89-38.03,5.1-56.93,8.45c1.5,1.83,4,0.06,5.1,1c-8.18,0.02-16.87-0.03-25.56,0.04c-1.81,0.01-4.06-0.3-4.61,2.1
	c-0.66,2.88,1.62,3.73,3.75,4.41c1.8,0.57,3.7,0.6,5.58,0.64c25.97,0.61,52,0.56,77.78-2.37c35.51-4.04,70.52-11.51,104.41-22.77
	c96.25-31.97,179.31-84.95,248.94-158.81c1.7-1.8,3.27-3.83,5.82-4.59c13.21-14.32,22.93-31.14,33.46-47.34
	c0.97-1.49,1.84-2.65,2.71-3.48l34.57,18.33C1263.07,265.23,1266.66,262.7,1266.17,259.29z"/>
</svg>
